<svg id="图层_1" data-name="图层 1" xmlns="http://www.w3.org/2000/svg" viewBox="0 0 785.96 785.96"><defs><style>.cls-1{fill:#fff;}</style></defs><title>isux公众号二维码-单图</title><rect class="cls-1" width="785.96" height="785.96"/><rect x="267.64" y="50.75" width="9.68" height="9.68"/><rect x="291.74" y="50.75" width="9.68" height="9.68"/><rect x="315.83" y="50.75" width="9.68" height="9.68"/><rect x="412.24" y="50.75" width="9.68" height="9.68"/><rect x="484.54" y="50.75" width="9.68" height="9.68"/><rect x="532.74" y="50.75" width="9.68" height="9.68"/><rect x="315.83" y="74.84" width="9.68" height="9.68"/><rect x="339.95" y="74.84" width="9.68" height="9.68"/><rect x="460.44" y="74.84" width="9.68" height="9.68"/><rect x="267.64" y="98.94" width="9.68" height="9.68"/><rect x="291.74" y="98.94" width="9.68" height="9.68"/><rect x="315.83" y="98.94" width="9.68" height="9.68"/><rect x="508.64" y="98.94" width="9.68" height="9.68"/><rect x="243.54" y="123.04" width="9.68" height="9.68"/><rect x="291.74" y="123.04" width="9.68" height="9.68"/><rect x="315.83" y="123.04" width="9.68" height="9.68"/><rect x="364.05" y="123.04" width="9.68" height="9.68"/><rect x="460.44" y="123.04" width="9.68" height="9.68"/><rect x="243.54" y="147.14" width="9.68" height="9.68"/><rect x="291.74" y="147.14" width="9.68" height="9.68"/><rect x="339.95" y="147.14" width="9.68" height="9.68"/><rect x="388.14" y="147.14" width="9.68" height="9.68"/><rect x="436.34" y="147.14" width="9.68" height="9.68"/><rect x="484.54" y="147.14" width="9.68" height="9.68"/><rect x="508.64" y="147.14" width="9.68" height="9.68"/><rect x="532.74" y="147.14" width="9.68" height="9.68"/><rect x="267.64" y="171.24" width="9.68" height="9.68"/><rect x="291.74" y="171.24" width="9.68" height="9.68"/><rect x="364.05" y="171.24" width="9.68" height="9.68"/><rect x="460.44" y="171.24" width="9.68" height="9.68"/><rect x="532.74" y="171.24" width="9.68" height="9.68"/><rect x="243.54" y="195.34" width="9.68" height="9.68"/><rect x="291.74" y="195.34" width="9.68" height="9.68"/><rect x="339.95" y="195.34" width="9.68" height="9.68"/><rect x="388.14" y="195.34" width="9.68" height="9.68"/><rect x="436.34" y="195.34" width="9.68" height="9.68"/><rect x="484.54" y="195.34" width="9.68" height="9.68"/><rect x="532.74" y="195.34" width="9.68" height="9.68"/><rect x="267.64" y="219.44" width="9.68" height="9.68"/><rect x="339.95" y="219.44" width="9.68" height="9.68"/><rect x="388.14" y="219.44" width="9.68" height="9.68"/><rect x="412.24" y="219.44" width="9.68" height="9.68"/><rect x="508.64" y="219.44" width="9.68" height="9.68"/><rect x="532.74" y="219.44" width="9.68" height="9.68"/><rect x="50.74" y="243.54" width="9.68" height="9.68"/><rect x="74.84" y="243.54" width="9.68" height="9.68"/><rect x="171.24" y="243.54" width="9.68" height="9.68"/><rect x="195.34" y="243.54" width="9.68" height="9.68"/><rect x="219.44" y="243.54" width="9.68" height="9.68"/><rect x="267.64" y="243.54" width="9.68" height="9.68"/><rect x="291.74" y="243.54" width="9.68" height="9.68"/><rect x="339.95" y="243.54" width="9.68" height="9.68"/><rect x="364.05" y="243.54" width="9.68" height="9.68"/><rect x="388.14" y="243.54" width="9.68" height="9.68"/><rect x="436.34" y="243.54" width="9.68" height="9.68"/><rect x="508.64" y="243.54" width="9.68" height="9.68"/><rect x="629.14" y="243.54" width="9.68" height="9.68"/><rect x="653.24" y="243.54" width="9.68" height="9.68"/><rect x="123.04" y="267.64" width="9.68" height="9.68"/><rect x="147.14" y="267.64" width="9.68" height="9.68"/><rect x="171.24" y="267.64" width="9.68" height="9.68"/><rect x="291.74" y="267.64" width="9.68" height="9.68"/><rect x="364.05" y="267.64" width="9.68" height="9.68"/><rect x="412.24" y="267.64" width="9.68" height="9.68"/><rect x="460.44" y="267.64" width="9.68" height="9.68"/><rect x="484.54" y="267.64" width="9.68" height="9.68"/><rect x="508.64" y="267.64" width="9.68" height="9.68"/><rect x="532.74" y="267.64" width="9.68" height="9.68"/><rect x="605.04" y="267.64" width="9.68" height="9.68"/><rect x="629.14" y="267.64" width="9.68" height="9.68"/><rect x="677.34" y="267.64" width="9.68" height="9.68"/><rect x="701.44" y="267.64" width="9.68" height="9.68"/><rect x="50.74" y="291.74" width="9.68" height="9.68"/><rect x="74.84" y="291.74" width="9.68" height="9.68"/><rect x="98.94" y="291.74" width="9.68" height="9.68"/><rect x="195.34" y="291.74" width="9.68" height="9.68"/><rect x="267.64" y="291.74" width="9.68" height="9.68"/><rect x="315.83" y="291.74" width="9.68" height="9.68"/><rect x="339.95" y="291.74" width="9.68" height="9.68"/><rect x="412.24" y="291.74" width="9.68" height="9.68"/><rect x="436.34" y="291.74" width="9.68" height="9.68"/><rect x="484.54" y="291.74" width="9.68" height="9.68"/><rect x="532.74" y="291.74" width="9.68" height="9.68"/><rect x="580.94" y="291.74" width="9.68" height="9.68"/><rect x="605.04" y="291.74" width="9.68" height="9.68"/><rect x="629.14" y="291.74" width="9.68" height="9.68"/><rect x="50.74" y="315.84" width="9.68" height="9.68"/><rect x="74.84" y="315.84" width="9.68" height="9.68"/><rect x="123.04" y="315.84" width="9.68" height="9.68"/><rect x="219.44" y="315.84" width="9.68" height="9.68"/><rect x="243.54" y="315.84" width="9.68" height="9.68"/><rect x="291.74" y="315.84" width="9.68" height="9.68"/><rect x="315.83" y="315.84" width="9.68" height="9.68"/><rect x="484.54" y="315.84" width="9.68" height="9.68"/><rect x="532.74" y="315.84" width="9.68" height="9.68"/><rect x="580.94" y="315.84" width="9.68" height="9.68"/><rect x="74.84" y="339.94" width="9.68" height="9.68"/><rect x="98.94" y="339.94" width="9.68" height="9.68"/><rect x="147.14" y="339.94" width="9.68" height="9.68"/><rect x="195.34" y="339.94" width="9.68" height="9.68"/><rect x="267.64" y="339.94" width="9.68" height="9.68"/><rect x="291.74" y="339.94" width="9.68" height="9.68"/><rect x="388.14" y="339.94" width="9.68" height="9.68"/><rect x="436.34" y="339.94" width="9.68" height="9.68"/><rect x="460.44" y="339.94" width="9.68" height="9.68"/><rect x="532.74" y="339.94" width="9.68" height="9.68"/><rect x="556.84" y="339.94" width="9.68" height="9.68"/><rect x="580.94" y="339.94" width="9.68" height="9.68"/><rect x="605.04" y="339.94" width="9.68" height="9.68"/><rect x="725.54" y="339.94" width="9.68" height="9.68"/><rect x="50.74" y="364.04" width="9.68" height="9.68"/><rect x="74.84" y="364.04" width="9.68" height="9.68"/><rect x="98.94" y="364.04" width="9.68" height="9.68"/><rect x="123.04" y="364.04" width="9.68" height="9.68"/><rect x="147.14" y="364.04" width="9.68" height="9.68"/><rect x="171.24" y="364.04" width="9.68" height="9.68"/><rect x="219.44" y="364.04" width="9.68" height="9.68"/><rect x="243.54" y="364.04" width="9.68" height="9.68"/><rect x="291.74" y="364.04" width="9.68" height="9.68"/><rect x="339.95" y="364.04" width="9.68" height="9.68"/><rect x="364.05" y="364.04" width="9.68" height="9.68"/><rect x="388.14" y="364.04" width="9.68" height="9.68"/><rect x="436.34" y="364.04" width="9.68" height="9.68"/><rect x="508.64" y="364.04" width="9.68" height="9.68"/><rect x="532.74" y="364.04" width="9.68" height="9.68"/><rect x="580.94" y="364.04" width="9.68" height="9.68"/><rect x="605.04" y="364.04" width="9.68" height="9.68"/><rect x="629.14" y="364.04" width="9.68" height="9.68"/><rect x="677.34" y="364.04" width="9.68" height="9.68"/><rect x="701.44" y="364.04" width="9.68" height="9.68"/><rect x="725.54" y="364.04" width="9.68" height="9.68"/><rect x="147.14" y="388.14" width="9.68" height="9.68"/><rect x="195.34" y="388.14" width="9.68" height="9.68"/><rect x="219.44" y="388.14" width="9.68" height="9.68"/><rect x="267.64" y="388.14" width="9.68" height="9.68"/><rect x="412.24" y="388.14" width="9.68" height="9.68"/><rect x="436.34" y="388.14" width="9.68" height="9.68"/><rect x="460.44" y="388.14" width="9.68" height="9.68"/><rect x="532.74" y="388.14" width="9.68" height="9.68"/><rect x="580.94" y="388.14" width="9.68" height="9.68"/><rect x="629.14" y="388.14" width="9.68" height="9.68"/><rect x="677.34" y="388.14" width="9.68" height="9.68"/><rect x="50.74" y="412.24" width="9.68" height="9.68"/><rect x="74.84" y="412.24" width="9.68" height="9.68"/><rect x="98.94" y="412.24" width="9.68" height="9.68"/><rect x="123.04" y="412.24" width="9.68" height="9.68"/><rect x="171.24" y="412.24" width="9.68" height="9.68"/><rect x="219.44" y="412.24" width="9.68" height="9.68"/><rect x="339.95" y="412.24" width="9.68" height="9.68"/><rect x="412.24" y="412.24" width="9.68" height="9.68"/><rect x="484.54" y="412.24" width="9.68" height="9.68"/><rect x="508.64" y="412.24" width="9.68" height="9.68"/><rect x="677.34" y="412.24" width="9.68" height="9.68"/><rect x="725.54" y="412.24" width="9.68" height="9.68"/><rect x="74.84" y="436.34" width="9.68" height="9.68"/><rect x="123.04" y="436.34" width="9.68" height="9.68"/><rect x="147.14" y="436.34" width="9.68" height="9.68"/><rect x="171.24" y="436.34" width="9.68" height="9.68"/><rect x="195.34" y="436.34" width="9.68" height="9.68"/><rect x="339.95" y="436.34" width="9.68" height="9.68"/><rect x="364.05" y="436.34" width="9.68" height="9.68"/><rect x="388.14" y="436.34" width="9.68" height="9.68"/><rect x="412.24" y="436.34" width="9.68" height="9.68"/><rect x="508.64" y="436.34" width="9.68" height="9.68"/><rect x="605.04" y="436.34" width="9.68" height="9.68"/><rect x="677.34" y="436.34" width="9.68" height="9.68"/><rect x="50.74" y="460.44" width="9.68" height="9.68"/><rect x="147.14" y="460.44" width="9.68" height="9.68"/><rect x="171.24" y="460.44" width="9.68" height="9.68"/><rect x="243.54" y="460.44" width="9.68" height="9.68"/><rect x="267.64" y="460.44" width="9.68" height="9.68"/><rect x="291.74" y="460.44" width="9.68" height="9.68"/><rect x="364.05" y="460.44" width="9.68" height="9.68"/><rect x="388.14" y="460.44" width="9.68" height="9.68"/><rect x="436.34" y="460.44" width="9.68" height="9.68"/><rect x="460.44" y="460.44" width="9.68" height="9.68"/><rect x="484.54" y="460.44" width="9.68" height="9.68"/><rect x="508.64" y="460.44" width="9.68" height="9.68"/><rect x="532.74" y="460.44" width="9.68" height="9.68"/><rect x="556.84" y="460.44" width="9.68" height="9.68"/><rect x="580.94" y="460.44" width="9.68" height="9.68"/><rect x="605.04" y="460.44" width="9.68" height="9.68"/><rect x="629.14" y="460.44" width="9.68" height="9.68"/><rect x="653.24" y="460.44" width="9.68" height="9.68"/><rect x="677.34" y="460.44" width="9.68" height="9.68"/><rect x="701.44" y="460.44" width="9.68" height="9.68"/><rect x="725.54" y="460.44" width="9.68" height="9.68"/><rect x="50.74" y="484.54" width="9.68" height="9.68"/><rect x="74.84" y="484.54" width="9.68" height="9.68"/><rect x="98.94" y="484.54" width="9.68" height="9.68"/><rect x="171.24" y="484.54" width="9.68" height="9.68"/><rect x="195.34" y="484.54" width="9.68" height="9.68"/><rect x="243.54" y="484.54" width="9.68" height="9.68"/><rect x="267.64" y="484.54" width="9.68" height="9.68"/><rect x="339.95" y="484.54" width="9.68" height="9.68"/><rect x="364.05" y="484.54" width="9.68" height="9.68"/><rect x="388.14" y="484.54" width="9.68" height="9.68"/><rect x="412.24" y="484.54" width="9.68" height="9.68"/><rect x="436.34" y="484.54" width="9.68" height="9.68"/><rect x="484.54" y="484.54" width="9.68" height="9.68"/><rect x="508.64" y="484.54" width="9.68" height="9.68"/><rect x="556.84" y="484.54" width="9.68" height="9.68"/><rect x="580.94" y="484.54" width="9.68" height="9.68"/><rect x="629.14" y="484.54" width="9.68" height="9.68"/><rect x="725.54" y="484.54" width="9.68" height="9.68"/><rect x="50.74" y="508.64" width="9.68" height="9.68"/><rect x="98.94" y="508.64" width="9.68" height="9.68"/><rect x="123.04" y="508.64" width="9.68" height="9.68"/><rect x="147.14" y="508.64" width="9.68" height="9.68"/><rect x="243.54" y="508.64" width="9.68" height="9.68"/><rect x="315.83" y="508.64" width="9.68" height="9.68"/><rect x="388.14" y="508.64" width="9.68" height="9.68"/><rect x="436.34" y="508.64" width="9.68" height="9.68"/><rect x="508.64" y="508.64" width="9.68" height="9.68"/><rect x="556.84" y="508.64" width="9.68" height="9.68"/><rect x="50.74" y="532.74" width="9.68" height="9.68"/><rect x="147.14" y="532.74" width="9.68" height="9.68"/><rect x="195.34" y="532.74" width="9.68" height="9.68"/><rect x="267.64" y="532.74" width="9.68" height="9.68"/><rect x="315.83" y="532.74" width="9.68" height="9.68"/><rect x="388.14" y="532.74" width="9.68" height="9.68"/><rect x="412.24" y="532.74" width="9.68" height="9.68"/><rect x="436.34" y="532.74" width="9.68" height="9.68"/><rect x="532.74" y="532.74" width="9.68" height="9.68"/><rect x="556.84" y="532.74" width="9.68" height="9.68"/><rect x="580.94" y="532.74" width="9.68" height="9.68"/><rect x="605.04" y="532.74" width="9.68" height="9.68"/><rect x="629.14" y="532.74" width="9.68" height="9.68"/><rect x="677.34" y="532.74" width="9.68" height="9.68"/><rect x="701.44" y="532.74" width="9.68" height="9.68"/><rect x="725.54" y="532.74" width="9.68" height="9.68"/><rect x="243.54" y="556.84" width="9.68" height="9.68"/><rect x="267.64" y="556.84" width="9.68" height="9.68"/><rect x="339.95" y="556.84" width="9.68" height="9.68"/><rect x="388.14" y="556.84" width="9.68" height="9.68"/><rect x="532.74" y="556.84" width="9.68" height="9.68"/><rect x="629.14" y="556.84" width="9.68" height="9.68"/><rect x="653.24" y="556.84" width="9.68" height="9.68"/><rect x="243.54" y="580.94" width="9.68" height="9.68"/><rect x="364.05" y="580.94" width="9.68" height="9.68"/><rect x="412.24" y="580.94" width="9.68" height="9.68"/><rect x="436.34" y="580.94" width="9.68" height="9.68"/><rect x="508.64" y="580.94" width="9.68" height="9.68"/><rect x="532.74" y="580.94" width="9.68" height="9.68"/><rect x="580.94" y="580.94" width="9.68" height="9.68"/><rect x="629.14" y="580.94" width="9.68" height="9.68"/><rect x="653.24" y="580.94" width="9.68" height="9.68"/><rect x="677.34" y="580.94" width="9.68" height="9.68"/><rect x="243.54" y="605.04" width="9.68" height="9.68"/><rect x="291.74" y="605.04" width="9.68" height="9.68"/><rect x="339.95" y="605.04" width="9.68" height="9.68"/><rect x="388.14" y="605.04" width="9.68" height="9.68"/><rect x="436.34" y="605.04" width="9.68" height="9.68"/><rect x="508.64" y="605.04" width="9.68" height="9.68"/><rect x="532.74" y="605.04" width="9.68" height="9.68"/><rect x="629.14" y="605.04" width="9.68" height="9.68"/><rect x="653.24" y="605.04" width="9.68" height="9.68"/><rect x="701.44" y="605.04" width="9.68" height="9.68"/><rect x="725.54" y="605.04" width="9.68" height="9.68"/><rect x="267.64" y="629.13" width="9.68" height="9.68"/><rect x="291.74" y="629.13" width="9.68" height="9.68"/><rect x="315.83" y="629.13" width="9.68" height="9.68"/><rect x="339.95" y="629.13" width="9.68" height="9.68"/><rect x="364.05" y="629.13" width="9.68" height="9.68"/><rect x="412.24" y="629.13" width="9.68" height="9.68"/><rect x="436.34" y="629.13" width="9.68" height="9.68"/><rect x="508.64" y="629.13" width="9.68" height="9.68"/><rect x="532.74" y="629.13" width="9.68" height="9.68"/><rect x="556.84" y="629.13" width="9.68" height="9.68"/><rect x="580.94" y="629.13" width="9.68" height="9.68"/><rect x="605.04" y="629.13" width="9.68" height="9.68"/><rect x="629.14" y="629.13" width="9.68" height="9.68"/><rect x="701.44" y="629.13" width="9.68" height="9.68"/><rect x="388.14" y="653.23" width="9.68" height="9.68"/><rect x="436.34" y="653.23" width="9.68" height="9.68"/><rect x="460.44" y="653.23" width="9.68" height="9.68"/><rect x="484.54" y="653.23" width="9.68" height="9.68"/><rect x="532.74" y="653.23" width="9.68" height="9.68"/><rect x="556.84" y="653.23" width="9.68" height="9.68"/><rect x="653.24" y="653.23" width="9.68" height="9.68"/><rect x="725.54" y="653.23" width="9.68" height="9.68"/><rect x="315.83" y="677.33" width="9.68" height="9.68"/><rect x="339.95" y="677.33" width="9.68" height="9.68"/><rect x="364.05" y="677.33" width="9.68" height="9.68"/><rect x="412.24" y="677.33" width="9.68" height="9.68"/><rect x="436.34" y="677.33" width="9.68" height="9.68"/><rect x="460.44" y="677.33" width="9.68" height="9.68"/><rect x="484.54" y="677.33" width="9.68" height="9.68"/><rect x="508.64" y="677.33" width="9.68" height="9.68"/><rect x="532.74" y="677.33" width="9.68" height="9.68"/><rect x="580.94" y="677.33" width="9.68" height="9.68"/><rect x="605.04" y="677.33" width="9.68" height="9.68"/><rect x="629.14" y="677.33" width="9.68" height="9.68"/><rect x="653.24" y="677.33" width="9.68" height="9.68"/><rect x="677.34" y="677.33" width="9.68" height="9.68"/><rect x="701.44" y="677.33" width="9.68" height="9.68"/><rect x="243.54" y="701.43" width="9.68" height="9.68"/><rect x="315.83" y="701.43" width="9.68" height="9.68"/><rect x="484.54" y="701.43" width="9.68" height="9.68"/><rect x="580.94" y="701.43" width="9.68" height="9.68"/><rect x="605.04" y="701.43" width="9.68" height="9.68"/><rect x="629.14" y="701.43" width="9.68" height="9.68"/><rect x="653.24" y="701.43" width="9.68" height="9.68"/><rect x="677.34" y="701.43" width="9.68" height="9.68"/><rect x="725.54" y="701.43" width="9.68" height="9.68"/><rect x="243.54" y="725.53" width="9.68" height="9.68"/><rect x="291.74" y="725.53" width="9.68" height="9.68"/><rect x="315.83" y="725.53" width="9.68" height="9.68"/><rect x="339.95" y="725.53" width="9.68" height="9.68"/><rect x="460.44" y="725.53" width="9.68" height="9.68"/><rect x="484.54" y="725.53" width="9.68" height="9.68"/><rect x="605.04" y="725.53" width="9.68" height="9.68"/><rect x="629.14" y="725.53" width="9.68" height="9.68"/><rect x="677.34" y="725.53" width="9.68" height="9.68"/><rect class="cls-1" x="334.29" y="334.28" width="117.38" height="117.38"/><polygon points="348.33 451.67 334.29 437.62 373.59 398.32 380.62 405.33 387.64 412.36 348.33 451.67"/><polygon points="334.29 348.34 348.33 334.28 387.64 373.59 380.62 380.62 373.59 387.64 334.29 348.34"/><polygon points="437.62 334.28 451.67 348.34 412.37 387.64 405.34 380.62 398.31 373.59 437.62 334.28"/><polygon points="451.67 437.62 437.62 451.67 398.31 412.36 405.34 405.33 412.37 398.32 451.67 437.62"/><rect x="51.4" y="50.75" width="154.28" height="154.28"/><rect class="cls-1" x="71.26" y="70.61" width="114.54" height="114.54"/><rect x="99.6" y="98.94" width="57.88" height="57.88"/><rect x="51.4" y="580.94" width="154.28" height="154.28"/><rect class="cls-1" x="71.26" y="600.81" width="114.54" height="114.54"/><rect x="99.6" y="629.13" width="57.88" height="57.88"/><rect x="580.94" y="50.75" width="154.28" height="154.28"/><rect class="cls-1" x="600.8" y="70.61" width="114.54" height="114.54"/><rect x="629.14" y="98.94" width="57.88" height="57.88"/></svg>